<svg width="120" height="25" viewBox="0 0 120 25" fill="none" xmlns="http://www.w3.org/2000/svg">
<path d="M11.5245 4.28091C11.6741 3.82025 12.3259 3.82025 12.4755 4.28091L14.1329 9.38172C14.1998 9.58773 14.3918 9.72721 14.6084 9.72721H19.9717C20.4561 9.72721 20.6575 10.347 20.2656 10.6317L15.9266 13.7842C15.7514 13.9115 15.678 14.1372 15.745 14.3432L17.4023 19.444C17.552 19.9047 17.0248 20.2877 16.6329 20.003L12.2939 16.8506C12.1186 16.7232 11.8814 16.7232 11.7061 16.8506L7.3671 20.003C6.97524 20.2877 6.448 19.9047 6.59768 19.444L8.25503 14.3432C8.32197 14.1372 8.24864 13.9115 8.07339 13.7842L3.73438 10.6317C3.34253 10.347 3.54392 9.72721 4.02828 9.72721H9.39159C9.6082 9.72721 9.80018 9.58773 9.86712 9.38172L11.5245 4.28091Z" fill="#F3BE00"/>
<path d="M35.5245 4.28091C35.6741 3.82025 36.3259 3.82025 36.4755 4.28091L38.1329 9.38172C38.1998 9.58773 38.3918 9.72721 38.6084 9.72721H43.9717C44.4561 9.72721 44.6575 10.347 44.2656 10.6317L39.9266 13.7842C39.7514 13.9115 39.678 14.1372 39.745 14.3432L41.4023 19.444C41.552 19.9047 41.0248 20.2877 40.6329 20.003L36.2939 16.8506C36.1186 16.7232 35.8814 16.7232 35.7061 16.8506L31.3671 20.003C30.9752 20.2877 30.448 19.9047 30.5977 19.444L32.255 14.3432C32.322 14.1372 32.2486 13.9115 32.0734 13.7842L27.7344 10.6317C27.3425 10.347 27.5439 9.72721 28.0283 9.72721H33.3916C33.6082 9.72721 33.8002 9.58773 33.8671 9.38172L35.5245 4.28091Z" fill="#F3BE00"/>
<path d="M59.5245 4.28091C59.6741 3.82025 60.3259 3.82025 60.4755 4.28091L62.1329 9.38172C62.1998 9.58773 62.3918 9.72721 62.6084 9.72721H67.9717C68.4561 9.72721 68.6575 10.347 68.2656 10.6317L63.9266 13.7842C63.7514 13.9115 63.678 14.1372 63.745 14.3432L65.4023 19.444C65.552 19.9047 65.0248 20.2877 64.6329 20.003L60.2939 16.8506C60.1186 16.7232 59.8814 16.7232 59.7061 16.8506L55.3671 20.003C54.9752 20.2877 54.448 19.9047 54.5977 19.444L56.255 14.3432C56.322 14.1372 56.2486 13.9115 56.0734 13.7842L51.7344 10.6317C51.3425 10.347 51.5439 9.72721 52.0283 9.72721H57.3916C57.6082 9.72721 57.8002 9.58773 57.8671 9.38172L59.5245 4.28091Z" fill="#F3BE00"/>
<path d="M83.5245 4.28091C83.6741 3.82025 84.3259 3.82025 84.4755 4.28091L86.1329 9.38172C86.1998 9.58773 86.3918 9.72721 86.6084 9.72721H91.9717C92.4561 9.72721 92.6575 10.347 92.2656 10.6317L87.9266 13.7842C87.7514 13.9115 87.678 14.1372 87.745 14.3432L89.4023 19.444C89.552 19.9047 89.0248 20.2877 88.6329 20.003L84.2939 16.8506C84.1186 16.7232 83.8814 16.7232 83.7061 16.8506L79.3671 20.003C78.9752 20.2877 78.448 19.9047 78.5977 19.444L80.255 14.3432C80.322 14.1372 80.2486 13.9115 80.0734 13.7842L75.7344 10.6317C75.3425 10.347 75.5439 9.72721 76.0283 9.72721H81.3916C81.6082 9.72721 81.8002 9.58773 81.8671 9.38172L83.5245 4.28091Z" fill="#F3BE00"/>
<path d="M107.524 4.28091C107.674 3.82025 108.326 3.82025 108.476 4.28091L110.133 9.38172C110.2 9.58773 110.392 9.72721 110.608 9.72721H115.972C116.456 9.72721 116.657 10.347 116.266 10.6317L111.927 13.7842C111.751 13.9115 111.678 14.1372 111.745 14.3432L113.402 19.444C113.552 19.9047 113.025 20.2877 112.633 20.003L108.294 16.8506C108.119 16.7232 107.881 16.7232 107.706 16.8506L103.367 20.003C102.975 20.2877 102.448 19.9047 102.598 19.444L104.255 14.3432C104.322 14.1372 104.249 13.9115 104.073 13.7842L99.7344 10.6317C99.3425 10.347 99.5439 9.72721 100.028 9.72721H105.392C105.608 9.72721 105.8 9.58773 105.867 9.38172L107.524 4.28091Z" fill="#BFBFBF"/>
</svg>
